<?xml version="1.0" encoding="UTF-8" standalone="no"?>
<svg
   width="160.20763"
   height="28.582664"
   viewBox="0 0 160.20763 28.582664"
   version="1.1"
   id="svg1651"
   sodipodi:docname="logo-2.svg"
   inkscape:version="1.2.2 (b0a8486541, 2022-12-01)"
   xmlns:inkscape="http://www.inkscape.org/namespaces/inkscape"
   xmlns:sodipodi="http://sodipodi.sourceforge.net/DTD/sodipodi-0.dtd"
   xmlns="http://www.w3.org/2000/svg"
   xmlns:svg="http://www.w3.org/2000/svg">
  <sodipodi:namedview
     id="namedview1653"
     pagecolor="#ffffff"
     bordercolor="#000000"
     borderopacity="0.25"
     inkscape:showpageshadow="2"
     inkscape:pageopacity="0.0"
     inkscape:pagecheckerboard="0"
     inkscape:deskcolor="#d1d1d1"
     showgrid="false"
     inkscape:zoom="4.1652121"
     inkscape:cx="75.266275"
     inkscape:cy="-10.68373"
     inkscape:window-width="1566"
     inkscape:window-height="831"
     inkscape:window-x="0"
     inkscape:window-y="0"
     inkscape:window-maximized="1"
     inkscape:current-layer="svg1651" />
  <defs
     id="defs1643">
    <linearGradient
       id="linearGradient2221"
       inkscape:swatch="solid">
      <stop
         style="stop-color:#00a65a;stop-opacity:1;"
         offset="0"
         id="stop2219" />
    </linearGradient>
    <linearGradient
       id="linear-gradient"
       x1="6.6274042"
       x2="16.900385"
       y2="9.6102076"
       gradientUnits="userSpaceOnUse"
       gradientTransform="scale(0.68848797,1.4524582)"
       y1="0">
      <stop
         offset="0"
         stop-color="#fe8464"
         id="stop1638" />
      <stop
         offset="1"
         stop-color="#fe6e9a"
         id="stop1640" />
    </linearGradient>
  </defs>
  <g
     id="Group_2"
     data-name="Group 2"
     transform="translate(-368.14439,-47.397648)"
     style="fill:#000000;fill-opacity:1">
    <text
       id="BASIC"
       transform="translate(409,68)"
       fill="#ffffff"
       font-size="24px"
       font-family="Helvetica-Bold, Helvetica"
       font-weight="700"
       style="fill:#000000;fill-opacity:1"><tspan
         x="0"
         y="0"
         id="tspan1645"
         style="fill:#000000;fill-opacity:1">AppFinder</tspan></text>
  </g>
  <g
     id="cloud-arrow-down"
     transform="scale(0.07248357)"
     style="fill:#000000;fill-opacity:1">
    <g
       id="cloud-arrow-down_1_"
       style="fill-opacity:1;fill:#000000">
      <path
         d="m 404.168,119.452 c -4.322,0 -8.527,0.365 -12.7,0.923 C 387.832,53.29 332.279,0 264.272,0 208.762,0 166.467,40.418 148.993,89.932 139.682,87.486 124.986,81.286 114.904,81.286 51.456,81.286 0,132.709 0,196.19 c 0,63.437 51.456,114.882 114.904,114.882 15.607,0 39.721,0 67.577,0 l 51.81,68.844 c 1.717,2.424 11.059,14.417 26.506,14.417 6.908,0 17.077,-2.489 26.602,-14.889 l 49.149,-68.371 c 30.882,0 55.896,0 67.62,0 52.904,0 95.8,-42.885 95.8,-95.811 0,-52.925 -42.896,-95.81 -95.8,-95.81 z m -175.841,11.241 h 60.831 v 22.569 4.956 h -60.831 v -4.956 z m 0,66.376 v -20.66 -4.955 h 60.831 v 4.955 20.617 1.974 h -60.831 z m 85.846,114.003 -41.545,57.774 c -12.4,16.111 -23.533,0.514 -23.533,0.514 l -43.851,-58.288 -28.275,-37.564 c -6.469,-13.28 7.691,-12.893 7.691,-12.893 h 44.279 v -43.443 -1.974 h 60.348 v 1.952 43.465 H 334.8 c 0,0 10.845,-0.215 7.423,11.434 z"
         style="fill:#000000;fill-opacity:1"
         id="path1694" />
    </g>
  </g>
  <g
     id="Layer_1" />
</svg>
